<svg xmlns="http://www.w3.org/2000/svg" viewBox="0 0 119.8 85.6"><style><![CDATA[
	.st0{fill:#AF936E;}
	.st1{fill:#C5B196;}
	.st2{fill:#313131;}
	.st3{fill:#D4C4B0;}
]]></style><g id="gato"><path id="corpo_2_" class="st1" d="M18.4 53c0-29.3 22.7-53 50.7-53 28 0 50.7 23.7 50.7 53"/><path id="orelha_3_" class="st0" d="M43 34.2c-1.9.3-9.2-7.9-8.4-9.6 2.2-6.2 14.7-6 15.7-4.2.9 1.8-2.4 12.8-7.3 13.8z"/><path id="orelha_2_" class="st0" d="M7.5 34.2c1.9.3 9.2-7.9 8.4-9.6-2.2-6.2-14.7-6-15.7-4.2-1 1.8 2.3 12.8 7.3 13.8z"/><path id="cabeça_2_" class="st3" d="M46.3 40.5c0 11.8-9.6 15.6-21.4 15.6S3.5 52.3 3.5 40.5c1.3-11.2 8.7-21.2 21.4-21.4 10.5-.2 20 9.3 21.4 21.4z"/><path id="nariz_5_" class="st2" d="M21.5 41.6c.3-.9 4.9-.8 5.2 0 .7 1.6-1 3-1.5 3.4-.7.6-1.6.3-2.1 0-.8-.5-2-2-1.6-3.4z"/><path class="st2" d="M19 35.7s-.1.2-.2.5l-.3.6c-.1.2-.3.5-.5.8-.4.5-.9 1.1-1.7 1.6-.4.2-.8.4-1.2.5-.2.1-.4.1-.7.1h-.7c-.2 0-.5 0-.7-.1-.2-.1-.4-.1-.6-.2l-.6-.3c-.2-.1-.4-.2-.5-.4-.7-.5-1.2-1.1-1.6-1.6-.4-.5-.7-1-.8-1.4-.2-.3-.3-.5-.3-.5s.1.2.3.5c.1.2.2.4.4.6.2.2.4.4.6.7.2.3.5.5.7.8.3.2.6.5.9.7.2.1.3.2.5.3.2.1.4.2.6.2.2.1.4.1.6.2.2.1.4.1.6.1h.6c.2 0 .4 0 .6-.1.4-.1.8-.3 1.1-.4.3-.2.7-.4.9-.7.3-.2.5-.5.7-.7.2-.2.4-.5.6-.7.2-.2.3-.4.4-.6.1-.3.3-.5.3-.5z" id="olho_6_"/><path class="st2" d="M30.1 35.7s.1.2.3.5c.1.2.2.4.4.6.2.2.3.5.6.7.2.2.4.5.7.7.3.3.6.4.9.7.4.2.7.3 1.1.4.2.1.4.1.6.1h.6c.2 0 .4 0 .6-.1.2-.1.4-.1.6-.2.2-.1.4-.2.6-.2.2-.1.3-.2.5-.3.3-.2.6-.5.9-.7.3-.3.5-.5.7-.8.2-.3.4-.5.6-.7.2-.2.3-.4.4-.6.2-.3.3-.5.3-.5s-.1.2-.3.5c-.2.3-.4.8-.8 1.4-.4.5-.9 1.1-1.6 1.6-.3.2-.7.5-1.1.7-.2.1-.4.1-.6.2-.2.1-.4.1-.7.1h-.7c-.2 0-.5 0-.7-.1-.4-.1-.8-.3-1.2-.5-.7-.5-1.3-1-1.7-1.6-.2-.2-.3-.5-.5-.8l-.3-.6c-.1-.3-.2-.5-.2-.5z" id="olho_2_"/></g><g id="mesa"><path id="rabogato" class="st1" d="M119.7 49.8c0 22.1-13.8 35.1-28 35.8-16.7 1.1-28.4-12.4-25-23.2 2.1-6.7 8.1-3.7 7.2.4-1.6 12.3 7.9 17.8 17.5 18.2 10.9-.3 21.2-12.8 19.2-31.2"/></g></svg>