<svg xmlns="http://www.w3.org/2000/svg" viewBox="0 0 190 210"><path d="M187.3 151.173c0 16.96-25.378 23.094-38.49 23.094-13.11 0-38.488-6.135-38.488-23.094 0-16.958 25.38-23.094 38.49-23.094 7.937 0 15.875 1.442 23.093 4.69V68.18L79.53 96.688v85.277c0 16.96-25.378 23.094-38.488 23.094s-38.49-6.134-38.49-23.094 25.38-23.093 38.49-23.093c7.938 0 15.876 1.443 23.093 4.692V47.252c0-5.05 3.368-9.5 8.18-11.064l100.07-30.79c1.082-.362 2.164-.482 3.368-.482 6.374 0 11.546 5.172 11.546 11.547v134.71z" fill="#4b81c2"/></svg>