<svg xmlns="http://www.w3.org/2000/svg" width="114" height="108" viewBox="0 0 114 108"><ellipse cx="23.705" cy="83.857" rx="9.755" ry="8.254" fill="#FFF"/><ellipse cx="6.636" cy="99.916" rx="6.036" ry="5.106" fill="#FFF"/><ellipse cx="68.609" cy="40.979" rx="44.566" ry="37.709" fill="#FFF"/><path d="M83.962 45.698l.29-.015c.214-.017.54-.05.95-.108.818-.125 2.017-.344 3.272-.9.615-.285 1.243-.665 1.71-1.185.46-.52.72-1.184.66-1.97-.04-.782-.376-1.636-.847-2.442-.475-.81-1.065-1.59-1.705-2.338a15.47 15.47 0 0 1-1.802-2.528 10.582 10.582 0 0 1-1.122-2.805c-.218-.96-.265-1.952-.014-2.846a3.504 3.504 0 0 1 1.484-2.058c.666-.442 1.383-.6 1.997-.684.62-.084 1.163-.047 1.605-.027.44.044.786.086 1.02.132l.357.06-.36-.035c-.235-.03-.582-.048-1.02-.06-.44.008-.977.01-1.57.132-.59.12-1.258.32-1.832.764a3.07 3.07 0 0 0-1.185 1.898c-.168.797-.068 1.684.19 2.548.27.864.683 1.72 1.214 2.517.538.814 1.135 1.53 1.847 2.25.716.747 1.395 1.542 1.976 2.417.573.875 1.058 1.858 1.19 2.97.086.548.02 1.126-.115 1.668a4.512 4.512 0 0 1-.745 1.44c-.652.815-1.444 1.332-2.174 1.723-1.48.756-2.783 1.057-3.694 1.252-.458.093-.82.15-1.077.184l-.334.038-.1.008-.064-1.998z" fill="#171717"/><path d="M84.018 45.637c-2.137-5.13-7.64-8.062-14.135-8.545 0 0-.48-.068-1.31-.085-.247-.006-.496-.02-.745-.02-1.36 0-2.68.11-3.94.32-3.356.504-7.566 1.76-11.128 4.75-2.39 1.002-4.204 2.654-5.052 4.454a6.32 6.32 0 0 0-.173.403c-3.796 1.973 1.65 5.662 1.65 5.662.477.336 1.023.327 1.62.933.007 0 .012-.105.017-.104.186.064.378.07.575.12C59.65 55.983 70.92 55.48 70.92 55.48c8.94 0 15.372-4.385 13.098-9.843z" fill="gray"/><circle cx="54.747" cy="47.758" r=".845" fill="#010101"/><ellipse cx="48.62" cy="45.559" rx=".674" ry=".74" fill="#010101"/><ellipse cx="47.246" cy="48.358" rx="1.061" ry="1.03" fill="#bc2025"/><path d="M56.28 43.29c-.406 1.84 1.062 3.647 2.98 3.97 8.496 1.907-.77-12.577-2.98-3.97zM50.57 43.957c1.642.146 3.044-1.333 3.108-3.033.263-4.682-11.66 2.165-3.108 3.033z" fill="#e39b9b"/><circle cx="48.469" cy="45.142" r=".161" fill="#FFF"/><circle cx="54.586" cy="47.396" r=".161" fill="#FFF"/><path d="M51.434 52.71c-.71.663-1.605.15-1.605.15" fill="#191919"/><path d="M51.448 52.73a.55.55 0 0 1-.11.31.2.2 0 0 1-.123.076c-.06.015-.137-.002-.202-.01-.136-.024-.23-.022-.346.073-.23.152-.518.13-.66-.01a.527.527 0 0 1-.19-.29l.024-.042s.152-.063.305-.083c.08-.01.16-.022.24.018.04.02.08.027.124.048.043.02.09.06.14.085.095.057.223.068.27-.05.048-.118.08-.123.17-.162a.536.536 0 0 1 .328-.005l.03.04z" fill="#171717"/></svg>